# xmcd CD database file
#
# Track frame offsets:
#	150
#	9792
#	21917
#	32490
#	44055
#	56025
#	67440
#	82677
#	93685
#	104545
#	119915
#	129432
#	141782
#	154050
#	166882
#	180852
#	194125
#	207862
#
# Disc length: 2987 seconds
#
# Revision: 4
# Processed by: cddbd v1.5.2PL0 Copyright (c) Steve Scherf et al.
# Submitted via: CDex 1.51
#
DISCID=000ba912
DTITLE=Various Artist - Queens Of Country - 18 Great Hits
DYEAR=1994
DGENRE=Country
TTITLE0=Lynn Anderson - Snowbird
TTITLE1=Billie Jo Spears - Misty Blue
TTITLE2=Tammy Wynette - Another Chance
TTITLE3=Sammi Smith - Help Me Make It Through The Night
TTITLE4=Skeeter Davis - End Of The World
TTITLE5=Patsy Cline - Just Out Of Reach
TTITLE6=Lynn Anderson - Desperado
TTITLE7=Donna Fargo - Wishful Thinking
TTITLE8=Dolly Parton - It Wasn't God Who Made Honky Tonk Angels
TTITLE9=Melba Montgomery - No Charge
TTITLE10=Jeannie C. Riley - The Girl Most Lokely To
TTITLE11=Anne Murray - All The Time
TTITLE12=Billie Jo Spears - You Never Can Tell
TTITLE13=Lynn Anderson - Top Of The World
TTITLE14=Patsy Cline - A Churh, A Courtroom And Then Goodbye
TTITLE15=Dottie West - D.I.V.O.R.C.E.
TTITLE16=Tammy Wynette - Stand By Your Man
TTITLE17=Billie Jo Spears - Blanket on The Ground
EXTD=YEAR: 1994
EXTT0=
EXTT1=
EXTT2=
EXTT3=
EXTT4=
EXTT5=
EXTT6=
EXTT7=
EXTT8=
EXTT9=
EXTT10=
EXTT11=
EXTT12=
EXTT13=
EXTT14=
EXTT15=
EXTT16=
EXTT17=
PLAYORDER=
